<?xml version="1.0" standalone="no"?>
<!DOCTYPE svg PUBLIC "-//W3C//DTD SVG 20010904//EN"
 "http://www.w3.org/TR/2001/REC-SVG-20010904/DTD/svg10.dtd">
<svg version="1.0" xmlns="http://www.w3.org/2000/svg"
 width="200.000000pt" height="200.000000pt" viewBox="0 0 200.000000 200.000000"
 preserveAspectRatio="xMidYMid meet">
<metadata>
Created by potrace 1.11, written by Peter Selinger 2001-2013
</metadata>
<g transform="translate(0.000000,200.000000) scale(0.100000,-0.100000)"
fill="#000000" stroke="none">
<path d="M630 1790 c-201 -115 -372 -214 -380 -220 -8 -5 -22 -13 -30 -17 -8
-4 -32 -17 -53 -30 l-37 -23 2 -503 3 -502 215 -123 c118 -68 233 -134 255
-147 22 -12 120 -68 217 -124 l177 -102 50 28 c28 15 101 57 163 93 62 35 122
70 133 76 11 6 108 62 215 124 107 62 215 124 240 138 25 13 51 29 58 35 9 7
12 117 10 511 l-3 501 -290 167 c-159 92 -301 173 -315 181 -14 7 -77 43 -141
80 -64 37 -118 67 -120 67 -2 0 -168 -95 -369 -210z m410 -125 c22 -14 41 -25
44 -25 2 0 93 -52 201 -115 109 -63 200 -115 202 -115 2 0 28 -16 58 -35 l55
-35 0 -347 0 -348 -286 -165 c-157 -91 -294 -169 -304 -174 -13 -6 -37 3 -91
35 -41 24 -90 53 -110 64 -20 11 -123 70 -228 130 l-191 110 0 350 0 350 108
61 c217 123 448 257 467 270 26 19 29 18 75 -11z"/>
<path d="M860 1325 c-69 -41 -144 -86 -168 -100 l-42 -25 2 -202 3 -201 157
-93 c86 -51 165 -95 175 -98 11 -3 79 31 183 92 l165 97 0 205 0 204 -168 98
c-93 54 -172 98 -175 97 -4 0 -63 -34 -132 -74z"/>
</g>
</svg>
